<svg viewBox="0 0 64 64" xmlns="http://www.w3.org/2000/svg"><defs><style>.cls-3{stroke:#4c241d;stroke-linecap:round;stroke-linejoin:round;stroke-width:2px;fill:none}.cls-4{fill:#4c241d}</style></defs><g id="portfolio"><circle cx="22.5" cy="24.5" r="21.5" fill="#eee"/><path d="M5.582 15a.582.582 0 00-.582.582V46h47V15z" stroke="#4c241d" stroke-linecap="round" stroke-linejoin="round" stroke-width="2" fill="#c1dbdc"/><circle class="cls-3" cx="47" cy="8" r="2"/><circle class="cls-4" cx="25.099" cy="8.523" r="1.069"/><path class="cls-3" d="M8.551 5.055l3 3m0-3l-3 3"/><path d="M5 46h56v6.418a.582.582 0 01-.582.582H5.582A.582.582 0 015 52.418V46h0z" fill="#fff" stroke="#4c241d" stroke-linecap="round" stroke-linejoin="round" stroke-width="2"/><path class="cls-3" d="M23 61h20"/><path fill="#e2e2e2" stroke="#4c241d" stroke-linecap="round" stroke-linejoin="round" stroke-width="2" d="M26 53h14v8H26z"/><path fill="#9dc1e4" stroke="#4c241d" stroke-linecap="round" stroke-linejoin="round" stroke-width="2" d="M10 22h16v12H10z"/><path fill="#bd53b5" stroke="#4c241d" stroke-linecap="round" stroke-linejoin="round" stroke-width="2" d="M10 38h16v8H10z"/><circle class="cls-4" cx="9.099" cy="18.523" r="1.069"/><circle class="cls-4" cx="12.099" cy="18.523" r="1.069"/><circle class="cls-4" cx="15.099" cy="18.523" r="1.069"/><path class="cls-3" d="M31 23h5m-5 3h9m-9 13h9m-9 3h4"/><rect height="4" rx="2" width="14" x="31" y="30" fill="#a9ba5a" stroke="#4c241d" stroke-linecap="round" stroke-linejoin="round" stroke-width="2"/><path class="cls-3" d="M49 22v8"/><path d="M60.418 15H52v31h9V15.582a.582.582 0 00-.582-.582z" fill="#6b4f5b" stroke="#4c241d" stroke-linecap="round" stroke-linejoin="round" stroke-width="2"/></g></svg>